<?xml version="1.0" encoding="UTF-8"?>
<!-- Created with Inkscape (http://www.inkscape.org/) -->
<svg width="1742.9" height="1738" version="1.1" viewBox="0 0 1742.9 1738" xmlns="http://www.w3.org/2000/svg" xmlns:xlink="http://www.w3.org/1999/xlink">
 <defs>
  <linearGradient id="linearGradient76" x2="1" gradientTransform="matrix(-3386.8 -5022.5 -5022.5 3386.8 11477 14083)" gradientUnits="userSpaceOnUse">
   <stop stop-color="#f8f17d" offset="0"/>
   <stop stop-color="#67cef2" offset="1"/>
  </linearGradient>
  <linearGradient id="linearGradient8" x2="1" gradientTransform="matrix(-3386.8 -5022.5 -5022.5 3386.8 11631 13979)" gradientUnits="userSpaceOnUse">
   <stop stop-color="#f8f17d" offset="0"/>
   <stop stop-color="#67cef2" offset="1"/>
  </linearGradient>
  <linearGradient id="linearGradient9" x2="1" gradientTransform="matrix(-338.68 -502.25 -502.25 338.68 1148.1 1402.9)" gradientUnits="userSpaceOnUse" xlink:href="#linearGradient76"/>
  <linearGradient id="linearGradient11" x2="1" gradientTransform="matrix(-338.68 -502.25 -502.25 338.68 1203.3 1365.7)" gradientUnits="userSpaceOnUse">
   <stop stop-color="#f8f17d" offset="0"/>
   <stop stop-color="#67cef2" offset="1"/>
  </linearGradient>
  <linearGradient id="linearGradient12" x2="1" gradientTransform="matrix(-338.68 -502.25 -502.25 338.68 1067 1457.6)" gradientUnits="userSpaceOnUse">
   <stop stop-color="#f8f17d" offset="0"/>
   <stop stop-color="#67cef2" offset="1"/>
  </linearGradient>
  <linearGradient id="linearGradient13" x2="1" gradientTransform="matrix(-338.68 -502.25 -502.25 338.68 1112.9 1426.6)" gradientUnits="userSpaceOnUse">
   <stop stop-color="#f8f17d" offset="0"/>
   <stop stop-color="#67cef2" offset="1"/>
  </linearGradient>
  <linearGradient id="linearGradient14" x2="1" gradientTransform="matrix(-338.68 -502.25 -502.25 338.68 1200.8 1367.4)" gradientUnits="userSpaceOnUse">
   <stop stop-color="#f8f17d" offset="0"/>
   <stop stop-color="#67cef2" offset="1"/>
  </linearGradient>
  <clipPath id="clipPath36">
   <rect x="502.84" y="522.37" width="1742.9" height="1738" ry="4.882" fill-opacity="0"/>
  </clipPath>
  <clipPath id="clipPath37">
   <rect x="502.84" y="522.37" width="1742.9" height="1738" ry="4.882" fill-opacity="0"/>
  </clipPath>
  <clipPath id="clipPath38">
   <rect transform="scale(1,-1)" x="377.13" y="-1655" width="1307.1" height="1303.5" ry="3.6615" fill-opacity="0" stroke-width=".75"/>
  </clipPath>
  <clipPath id="clipPath39">
   <rect transform="scale(1,-1)" x="377.13" y="-1655" width="1307.1" height="1303.5" ry="3.6615" fill-opacity="0" stroke-width=".75"/>
  </clipPath>
  <clipPath id="clipPath40">
   <rect transform="scale(1,-1)" x="377.13" y="-1655" width="1307.1" height="1303.5" ry="3.6615" fill-opacity="0" stroke-width=".75"/>
  </clipPath>
  <clipPath id="clipPath41">
   <rect transform="scale(1,-1)" x="377.13" y="-1655" width="1307.1" height="1303.5" ry="3.6615" fill-opacity="0" stroke-width=".75"/>
  </clipPath>
  <clipPath id="clipPath42">
   <rect transform="scale(1,-1)" x="377.13" y="-1655" width="1307.1" height="1303.5" ry="3.6615" fill-opacity="0" stroke-width=".75"/>
  </clipPath>
  <clipPath id="clipPath43">
   <rect transform="scale(1,-1)" x="377.13" y="-1655" width="1307.1" height="1303.5" ry="3.6615" fill-opacity="0" stroke-width=".75"/>
  </clipPath>
  <clipPath id="clipPath44">
   <rect transform="scale(1,-1)" x="3766.7" y="-16604" width="13071" height="13035" ry="36.615" fill-opacity="0" stroke-width="7.5"/>
  </clipPath>
  <clipPath id="clipPath45">
   <rect x="502.84" y="522.37" width="1742.9" height="1738" ry="4.882" fill-opacity="0"/>
  </clipPath>
  <clipPath id="clipPath46">
   <rect x="502.84" y="522.37" width="1742.9" height="1738" ry="4.882" fill-opacity="0"/>
  </clipPath>
  <clipPath id="clipPath47">
   <rect x="502.84" y="522.37" width="1742.9" height="1738" ry="4.882" fill-opacity="0"/>
  </clipPath>
  <clipPath id="clipPath48">
   <rect x="502.84" y="522.37" width="1742.9" height="1738" ry="4.882" fill-opacity="0"/>
  </clipPath>
  <clipPath id="clipPath49">
   <rect x="502.84" y="522.37" width="1742.9" height="1738" ry="4.882" fill-opacity="0"/>
  </clipPath>
  <clipPath id="clipPath50">
   <rect x="502.84" y="522.37" width="1742.9" height="1738" ry="4.882" fill-opacity="0"/>
  </clipPath>
  <clipPath id="clipPath51">
   <rect x="502.84" y="522.37" width="1742.9" height="1738" ry="4.882" fill-opacity="0"/>
  </clipPath>
  <clipPath id="clipPath52">
   <rect x="502.84" y="522.37" width="1742.9" height="1738" ry="4.882" fill-opacity="0"/>
  </clipPath>
  <clipPath id="clipPath53">
   <rect x="502.84" y="522.37" width="1742.9" height="1738" ry="4.882" fill-opacity="0"/>
  </clipPath>
  <clipPath id="clipPath55">
   <rect x="502.84" y="522.37" width="1742.9" height="1738" ry="4.882" fill-opacity="0"/>
  </clipPath>
  <clipPath id="clipPath56">
   <rect x="502.84" y="522.37" width="1742.9" height="1738" ry="4.882" fill-opacity="0"/>
  </clipPath>
  <clipPath id="clipPath57">
   <rect x="502.84" y="522.37" width="1742.9" height="1738" ry="4.882" fill-opacity="0"/>
  </clipPath>
  <clipPath id="clipPath58">
   <rect x="502.84" y="522.37" width="1742.9" height="1738" ry="4.882" fill-opacity="0"/>
  </clipPath>
  <clipPath id="clipPath59">
   <rect x="502.84" y="522.37" width="1742.9" height="1738" ry="4.882" fill-opacity="0"/>
  </clipPath>
  <clipPath id="clipPath60">
   <rect x="502.84" y="522.37" width="1742.9" height="1738" ry="4.882" fill-opacity="0"/>
  </clipPath>
  <clipPath id="clipPath61">
   <rect x="502.84" y="522.37" width="1742.9" height="1738" ry="4.882" fill-opacity="0"/>
  </clipPath>
  <clipPath id="clipPath62">
   <rect x="502.84" y="522.37" width="1742.9" height="1738" ry="4.882" fill-opacity="0"/>
  </clipPath>
  <clipPath id="clipPath63">
   <rect x="502.84" y="522.37" width="1742.9" height="1738" ry="4.882" fill-opacity="0"/>
  </clipPath>
 </defs>
 <path transform="translate(-502.84 -522.37)" d="m2729.6 2736.2h-2729v-2729h2729v2729" clip-path="url(#clipPath63)" fill="#151f1e"/>
 <g fill="#fff">
  <path transform="translate(-502.84 -522.37)" d="m643.42 1666.6v198.59h19.96v-119.6l71.077 127.79 71.207-127.8v119.61h19.96v-198.56l-91.163 166.73-91.041-166.76" clip-path="url(#clipPath62)"/>
  <path transform="translate(-502.84 -522.37)" d="m1008.8 1682.6v140.76l-133.54-152.88v194.56h19.96v-141.27l133.54 152.76v-193.93h-19.96" clip-path="url(#clipPath61)"/>
  <path transform="translate(-502.84 -522.37)" d="m1237.3 1855.2c18.807 0 35.601-5.8667 50.385-17.613 14.536-11.493 23.98-26.24 28.333-44.227h13.923c-4.52 21.68-15.359 39.627-32.523 53.827-17.495 14.387-37.533 21.56-60.119 21.56-26.116 0-48.456-9.28-67.016-27.84-18.479-18.467-27.719-40.773-27.719-66.893 0-26.107 9.24-48.413 27.719-66.893 18.56-18.56 40.9-27.84 67.016-27.84 22.585 0 42.624 7.1867 60.119 21.56 17.164 14.213 28.003 32.16 32.523 53.84h-13.923c-4.3533-17.987-13.797-32.733-28.333-44.227-14.784-11.747-31.579-17.613-50.385-17.613-22.42 0-41.559 7.92-57.408 23.773-15.852 15.853-23.776 34.987-23.776 57.4 0 22.427 7.924 41.56 23.776 57.413 15.849 15.853 34.988 23.773 57.408 23.773" clip-path="url(#clipPath60)"/>
  <path transform="translate(-502.84 -522.37)" d="m1380.4 1636.5h13.547v225.2h-13.547v-225.2" clip-path="url(#clipPath59)"/>
  <path transform="translate(-502.84 -522.37)" d="m1481.7 1716.5c-15.853 15.853-23.773 34.987-23.773 57.4 0 22.427 7.92 41.56 23.773 57.413 15.853 15.853 34.987 23.773 57.4 23.773 22.427 0 41.56-7.92 57.413-23.773 15.853-15.853 23.773-34.987 23.773-57.413 0-22.413-7.92-41.547-23.773-57.4-15.853-15.853-34.987-23.787-57.413-23.787-22.413 0-41.547 7.9333-57.4 23.787zm-9.6133 124.29c-18.48-18.48-27.72-40.773-27.72-66.893s9.24-48.413 27.72-66.893c18.56-18.56 40.907-27.84 67.013-27.84 26.12 0 48.413 9.28 66.893 27.84 18.56 18.48 27.84 40.773 27.84 66.893s-9.28 48.413-27.84 66.893c-18.48 18.56-40.773 27.84-66.893 27.84-26.107 0-48.453-9.28-67.013-27.84" clip-path="url(#clipPath58)"/>
  <path transform="translate(-502.84 -522.37)" d="m1846.9 1685.8v102.25c0 22.413-7.9333 41.6-23.787 57.533-15.933 15.84-35.067 23.773-57.4 23.773-22.427 0-41.6-7.9333-57.533-23.773-15.853-15.933-23.773-35.12-23.773-57.533v-102.25h13.547v102.25c0 18.72 6.6134 34.693 19.84 47.92 13.213 13.227 29.187 19.827 47.92 19.827 18.64 0 34.573-6.6 47.8-19.827 13.293-13.227 19.947-29.2 19.947-47.92v-102.25h13.44" clip-path="url(#clipPath57)"/>
  <path transform="translate(-502.84 -522.37)" d="m2049.5 1716.5c-15.853-15.853-34.987-23.787-57.413-23.787-22.427 0-41.56 7.9333-57.4 23.787-15.853 15.853-23.787 34.987-23.787 57.4 0 22.427 7.9333 41.56 23.787 57.413 15.84 15.853 34.973 23.773 57.4 23.773 22.427 0 41.56-7.92 57.413-23.773 15.84-15.853 23.773-34.987 23.773-57.413 0-22.413-7.9334-41.547-23.773-57.4zm23.773-79.84h13.547v137.24c0 26.12-9.28 48.453-27.84 67.013-18.48 18.48-40.773 27.72-66.893 27.72s-48.453-9.24-67.013-27.72c-18.48-18.56-27.72-40.893-27.72-67.013s9.24-48.413 27.72-66.893c18.56-18.56 40.893-27.84 67.013-27.84 16.92 0 32.68 4.2667 47.307 12.813 14.12 8.2134 25.413 19.347 33.88 33.387v-88.707" clip-path="url(#clipPath56)"/>
  <path transform="translate(-502.84 -522.37)" d="m822.41 2010.7c9.1853 0 18.099-3.24 25.121-9.04l4.0507 4.9866c-15.665 12.84-37.951 13.92-54.832 2.7067-16.881-11.213-24.444-32.147-18.637-51.587 5.8067-19.453 23.635-32.693 43.892-32.693 10.264 0 20.26 3.3867 28.363 9.7333l-3.9173 5c-6.888-5.4133-15.531-8.3866-24.309-8.3866-21.879 0-39.572 17.693-39.572 39.573s17.693 39.573 39.572 39.573l0.26934 0.1334" clip-path="url(#clipPath55)"/>
  <path transform="translate(-502.84 -522.37)" d="m918.58 1971c0 21.88 17.693 39.573 39.572 39.573 21.879 0 39.569-17.693 39.569-39.573s-17.691-39.573-39.569-39.573c-21.879 0-39.572 17.693-39.572 39.573zm-6.348 0c0-25.387 20.529-45.92 45.92-45.92 25.389 0 45.917 20.533 45.917 45.92 0 25.4-20.528 45.92-45.917 45.92-25.391 0-45.92-20.52-45.92-45.92" clip-path="url(#clipPath53)"/>
  <path transform="translate(-502.84 -522.37)" d="m1078.1 2017h-6.348v-93.053l57.399 74.693v-73.48h6.348v92.387l-57.399-74.693v74.147" clip-path="url(#clipPath52)"/>
  <path transform="translate(-502.84 -522.37)" d="m1224.3 2010.6c8.9133 0 16.747-6.08 19.043-14.72s-1.4866-17.827-9.3186-22.28l-21.069-12.16c-7.5626-4.4533-11.209-13.373-8.9133-21.88 2.296-8.5066 9.9947-14.453 18.772-14.453h2.0267c6.8866 0 13.235 3.6533 16.747 9.6l-5.5373 3.24c-2.296-3.92-6.6173-6.3467-11.209-6.3467h-2.0267c-5.9413 0-11.073 3.9067-12.559 9.5867-1.4853 5.6667 0.944 11.747 6.0774 14.72l21.068 12.147c10.265 5.9466 15.261 18.107 12.155 29.587-3.1066 11.48-13.505 19.44-25.389 19.44h-0.2707c-8.2373 0-15.936-3.92-20.933-10.533l5.132-3.9067c3.7813 4.9867 9.5893 7.96 15.801 7.96h0.4054" clip-path="url(#clipPath51)"/>
  <path transform="translate(-502.84 -522.37)" d="m1370.2 1925h6.3467v62.8c0.1467 10.533-5.4 20.267-14.44 25.533-9.0533 5.2667-20.267 5.2667-29.312 0-9.048-5.2667-14.587-15-14.451-25.533v-62.8h6.348v62.8c-0.1347 8.24 4.1853 15.8 11.215 19.987 7.0133 4.1867 15.8 4.1867 22.813 0 7.0267-4.1866 11.347-11.747 11.213-19.987l0.2666-62.8" clip-path="url(#clipPath50)"/>
  <path transform="translate(-502.84 -522.37)" d="m1493.1 2017.1h-49.027v-91.973h6.3467v85.493h42.547l0.1333 6.48" clip-path="url(#clipPath49)"/>
  <path transform="translate(-502.84 -522.37)" d="m1572.8 1931.5h-25.667v-6.3467h57.667v6.3467h-25.653v85.493h-6.3467v-85.493" clip-path="url(#clipPath48)"/>
  <path transform="translate(-502.84 -522.37)" d="m1672.3 2017v-91.973h6.3466v91.973h-6.3466" clip-path="url(#clipPath47)"/>
  <path transform="translate(-502.84 -522.37)" d="m1752.7 2017h-6.3467v-93.053l57.4 74.693v-73.48h6.3467v92.387l-57.4-74.693v74.147" clip-path="url(#clipPath46)"/>
  <path transform="translate(-502.84 -522.37)" d="m1923.7 2017c-25.387 0-45.907-20.52-45.907-45.92 0-25.387 20.52-45.92 45.907-45.92 10.267 0 20.267 3.3867 28.373 9.7333l-3.92 5c-6.8933-5.4133-15.533-8.3866-24.307-8.3866-17.293 0-32.547 11.213-37.827 27.693-5.2667 16.48 0.8133 34.44 14.867 44.293 14.04 9.8667 32.947 9.4534 46.72-0.9466v-28.36h-31.733v-6.3467h38.213v37.813l-1.2134 0.9467c-8.24 6.76-18.627 10.4-29.307 10.4h0.1333" clip-path="url(#clipPath45)"/>
 </g>
 <g>
  <path transform="matrix(.13333 0 0 -.13333 -502.23 2213.8)" d="m7894.6 14685-1.13-40.1 1502.7-42.2 6.91 359.9c0.26 9.8 4.08 17.7 10.65 24 6.62 6.2 15.85 10.2 26.48 10.2h0.8l-0.75 39.3-5.66-38.9c4.07-0.6 6.4-0.4 6.41-0.4l-0.75 39.3-5.66-38.9 2.81-0.4h2.91l0.02 24.6-2.83-24.5c0.38 0 1.12-0.1 2.81-0.1l0.02 24.6-2.83-24.5 0.93 8.1-1.2-8 0.27-0.1 0.93 8.1-1.2-8c0.07 0 3.59-0.7 7.96-1.9 15.91-4.2 45.28-13.9 69.7-22.2 12.28-4.2 23.48-8.1 31.58-11 8.11-2.8 13.06-4.6 13.07-4.6l13.5 37.7-36.79-15.8c0.63-1.5 1.56-4.3 2.52-8.8 3.09-13.4 5.46-40.3 16.46-75 2.16-6.8 5.51-19.7 8.94-35.3 5.18-23.5 10.79-53.6 15.02-83.3 4.25-29.7 7.08-59.3 7.04-80.5 0.02-9-0.53-16.5-1.28-20.9l-2.44-14.9 8.05-12.9c12.63-20.1 20.21-35.1 24.8-46.6 4.58-11.5 6.36-19.4 7.52-27.7l0.03-0.2c0.21-1.8 0.54-8.2 0.7-16.1 0.17-8 0.24-17.9 0.24-28.6 0-22.8-0.33-49.2-0.66-69.7-0.34-20.7-0.66-35.4-0.66-35.5l-0.35-15.3 10.07-11.7c0.13-0.2 11.33-13.1 25.35-28.6 7.03-7.7 14.75-16.1 22.28-23.8 7.58-7.8 14.75-15 21.77-21 9.27-7.9 18.61-13 27.06-17.1 12.64-5.9 23.85-9.8 30.14-12.7 1.55-0.7 2.77-1.3 3.54-1.7l0.95-0.6 6.12 9.1-7.91-7.5 1.79-1.6 6.12 9.1-7.91-7.5 17.09 16.2-21.47-9.4c1.42-3.3 3.2-5.6 4.38-6.8l17.09 16.2-21.47-9.4 9.05-20.7 22.37-3c9.3-1.2 18.43-1.7 27.34-1.7 26.2 0 50.58 4.1 71.05 7.8 10.2 1.8 19.4 3.5 26.93 4.8 7.49 1.2 13.45 1.7 15.96 1.7h1.08l0.25 3-0.49-3h0.24l0.25 3-0.49-3 3.27 20.2-10.47-17.3c3.97-2.4 6.51-2.8 7.2-2.9l3.27 20.2-10.47-17.3 0.09-0.1c1.69-1 5.67-3.9 10.23-7.9 6.96-6 15.34-14.1 24.56-22 4.66-4 9.55-8 15.22-11.8 5.74-3.8 12.11-7.7 21.41-10.5 3.15-0.9 5.44-1.4 8.04-1.9 9.3-1.9 22.7-3.8 39.6-6.1 50.4-6.8 128.3-15.6 162.8-18.5 9.5-0.8 17.2-2.3 23-4.1 8.8-2.9 13-5.8 16.3-9.4 3.3-3.7 6.6-9.1 9.3-20.1 2.5-10.4 4.8-20.5 7.7-30.5 2.2-7.5 4.7-14.9 8.2-22.5 2.6-5.7 5.8-11.5 10.1-17.2 6.3-8.6 15.4-16.9 26.5-22.2 11-5.3 23.1-7.5 34.5-7.5 6.5 0.1 13 0.6 20.9 1.3 27 2.7 68.1 9 105.8 15.8 18.9 3.4 36.6 6.9 51.3 10.2 7.3 1.6 13.8 3.2 19.6 4.7 2.9 0.8 5.6 1.6 8.2 2.5 2.8 0.9 5.3 1.8 8.8 3.5 9.1 4.4 14.3 9.3 18.9 13.8 7.8 8 13.3 15.8 19.1 23.8 8.5 11.9 16.9 24.2 24.6 33 3.8 4.3 7.4 7.8 10 9.8l3.2 2.2 1 0.4c17.4 5.4 30.3 10.5 40.3 13.6 10.1 3.1 17 4.5 26.7 4.5 3.1 0 6.4-0.1 10.2-0.5l1.1-0.2-1 0.2c17.3-1.9 51.2-6.8 84.3-12 33.2-5.1 65.9-10.3 83.4-12.9 10.5-1.5 19.9-5.5 32.9-11.6 6.4-3 13.7-6.4 22.2-9.7s18.4-6.3 29.5-7.8c0 0 2.5-0.5 5.7-1.6 5.8-1.9 14.3-5.6 23.1-10.4 13.2-7.1 27.2-16.9 36.4-26.1 4.6-4.6 8-8.9 9.8-11.9 0.9-1.5 1.4-2.7 1.6-3.4l0.2-0.6v-0.1l1.8 0.3-1.8-0.1v-0.2l1.8 0.3-1.8-0.1c0.8-8.4 2.8-13.7 4.8-18.9 3.7-8.8 8.3-16.7 14-24.8 8.6-12.1 19.3-24.3 32.8-35 6.8-5.3 14.4-10.2 23.2-14.2 8.9-3.9 19.3-6.9 31.3-6.9 9.4 0 17.4 1.4 24.8 2.9 11 2.4 20.8 5.3 29.3 7.3 8.4 2.1 15.5 3.2 19.1 3.1l2.3-0.1 0.2-0.1 0.6 2.5-1-2.3 0.4-0.2 0.6 2.5-1-2.3 2.3 5.4-4.7-3.7 2.4-1.7 2.3 5.4-4.7-3.7c5.8-7.1 11.6-12.4 18.4-18 11.6-9.6 25.8-19.3 41.6-29.2 23.7-14.7 50.7-29.4 76-40.9 12.7-5.8 24.9-10.8 36.6-14.6 5.8-1.8 11.5-3.5 17.4-4.7 5.8-1.2 11.8-2.1 18.7-2.1 6.7 0.1 14.7 0.6 24.8 5.4l0.1 0.1c1.3 0.6 4.7 2.1 9 3.5 13.2 4.4 35.2 8.7 51.5 8.6 6.5 0 12.1-0.7 15.5-1.5 1.7-0.4 2.8-0.9 3.3-1.1l0.3-0.1 2.5 4.1-3-3.7 0.5-0.4 2.5 4.1-3-3.7c2.2-1.8 4.4-4.4 7.2-9 4.2-6.8 8.7-17.9 15.3-31.6 6.7-13.6 16.4-30.4 33.5-44.5 10.4-8.5 21.9-15.5 34.4-22.3 18.7-10.2 39.3-19.7 57.2-27.3 9-3.7 17.2-7.1 24.1-9.7 7-2.7 12.4-4.7 17-6.1 13-4.1 40.1-14 73.9-39.7 16.1-12.4 24.2-21.7 31.3-31 3.5-4.6 6.9-9.4 10.9-14.9 3.9-5.4 8.7-11.5 14.9-17.8 7.2-7.1 14.5-12.4 22.1-17.4 11.3-7.5 23.1-13.9 33.1-19.3 5-2.7 9.5-5 13.1-6.9 3.5-1.8 6.3-3.3 6.5-3.5h0.1c5-3 8.5-4 11.3-4.8 4.2-1 6.9-1.3 9.5-1.5 2.5-0.3 4.7-0.3 6.8-0.3 6.2 0 12.3 0.5 19.3 1.1 24.3 2.5 59.2 8.3 93.7 15.3 17.2 3.5 34.1 7.3 49.4 11.1 15.4 4 28.8 7.8 40.1 12 15.7 6 29.1 14.2 40.4 23 17 13.3 29.7 27.8 40.1 39.9 10.2 12.1 18.7 21.7 23.8 25.7 14.9 12.1 26.8 23.7 37.6 32.9 10.8 9.3 20.3 16.1 30.9 20.8 7.9 3.7 23.9 9 39.7 12.7 15.8 3.8 32.6 6.2 41.1 6.1l3.2-0.1 0.9-0.2 1.8 10.8-3.8-10.2c1.5-0.5 2-0.5 2-0.6l1.8 10.8-3.8-10.2 9.1 24.6-16.3-20.4c3.3-2.6 5.8-3.6 7.2-4.2l9.1 24.6-16.3-20.4 12.5 15.6-13.9-14.3 1.4-1.3 12.5 15.6-13.9-14.3 6.3 6.5-6.6-6.3 0.3-0.2 6.3 6.5-6.6-6.3 0.3 0.3-0.3-0.3 0.3 0.3-0.3-0.3c0.3-0.2 2-2.3 3.9-5.2 3.6-5.1 8.4-12.8 13.5-21.3 7.7-12.8 16-27.3 23.7-39.9 3.8-6.3 7.5-12 11.3-17.4 1.9-2.7 3.8-5.3 6.3-8.1 2.6-2.8 5-5.9 11.7-10.3 4.4-2.8 9.5-5.6 15.7-8.7 18.5-8.8 45.9-19.4 78.7-20.6h0.1c2.4-0.1 4.8-0.1 7.2-0.1 20.3 0 48.5 1.9 76 4.3 27.5 2.3 53.2 5.1 67.9 7.2 7.4 1 13.6 1.4 20.2 1.4 13 0.1 28.8-1.8 51.4-1.8 21.4 0 38.5 4.9 52 8.2 13.7 3.5 24 5.8 36.2 5.8 12.8 0.1 25.5 0.8 38.2 0.8 13.8 0 27.5-0.9 39.9-3.8 12.4-3 23.3-7.6 33.6-15.6 22-17.1 42.9-34.5 66.2-49.5 23.2-14.9 49.5-27.6 80.4-31.7 6.4-0.8 12.7-1.1 18.8-1.1 29.4 0.1 56.8 7.2 81.3 13.7 12.1 3.3 23.4 6.5 33 8.9 9.5 2.5 17.5 4 21.8 4.3 7.1 0.6 16.3 1.6 26.4 2.4 9.9 0.8 20.6 1.4 29.1 1.4 3.8 0 7.2-0.1 9.7-0.3 1.9-0.2 3.3-0.4 3.9-0.5h0.2l5.4 20.8-13-16.7c5.3-3.9 7.4-4 7.6-4.1l5.4 20.8-13-16.7 20.3 26-28.9-15.8c2.7-4.9 6-8.2 8.6-10.2l20.3 26-28.9-15.8 30.4 16.6h-34.7c-0.1-5.4 1.6-11.8 4.3-16.6l30.4 16.6h-34.7 31.9l-29.2 13.2c-1.2-2.8-2.7-7.3-2.7-13.2h31.9l-29.2 13.2 20.6-9.3-18 13.7c-0.5-0.7-1.5-2-2.6-4.4l20.6-9.3-18 13.7 8-6-7.5 6.6-0.5-0.6 8-6-7.5 6.6-0.1-0.1c-0.6-0.6-5.1-4.5-12.9-9.5-7.9-5-19.3-11.4-34.1-19.1-11-5.6-30-14.8-49-24.4-9.5-4.8-19-9.8-27.9-14.7-8.9-5-16.9-9.8-24.3-15-6.1-4.4-12.9-9.5-20.6-15.3-11.5-8.6-24.9-18.4-38.5-27.2s-27.5-16.6-38.8-21.1c-19.9-8-63.2-25.1-106.2-42.7-21.5-8.9-43-17.8-61.6-26-18.8-8.2-34.3-15.3-45.8-21.4-7.6-4.2-23.4-11.8-42.6-20.9-29-13.6-66.5-30.7-102.5-47.7-36.1-17-70.5-33.5-94.7-46.8-17.5-9.7-41.3-25.2-69.2-44.3-41.7-28.5-91.5-64.7-133.9-97.1-21.3-16.2-40.6-31.5-56.3-44.6-7.9-6.5-14.9-12.5-20.9-18s-10.9-10.2-15.6-15.7c-6.2-7.3-18.7-21.2-33.8-37.7-45.6-49.6-116.8-125-138.8-147.8-4.7-4.8-10.4-11.1-17.4-19.1-24.4-27.8-64-75.1-100.6-118.7-18.2-21.8-35.7-42.7-50-59.5-7.1-8.5-13.4-15.9-18.6-21.9-5.2-5.9-9.3-10.6-11.5-12.9-1.9-2.2-7.3-7.5-14.3-14.1-24.9-23.6-71.7-65.8-113.7-103.5-21-18.9-40.8-36.8-56.4-50.8-7.7-7.1-14.4-13.2-19.7-18.1-2.6-2.4-4.9-4.6-6.9-6.5-1.9-1.9-3.5-3.4-5.3-5.3l1.8-1.7-1.8 1.7 1.8-1.7-1.8 1.7c-0.1-0.1-1.3-1.3-3-2.9-6.4-5.9-19.8-17.6-35.9-31.3-24.3-20.6-55.3-46.2-82.1-67.8-13.5-10.7-25.8-20.4-35.7-27.9-4.9-3.7-9.2-6.8-12.4-9.1-1.7-1.2-3.1-2.2-4.1-2.8l-1.2-0.8-0.4-0.2c-11.5-6.7-17.4-14.4-22.3-21.2-8.2-11.9-13.4-23.5-19.6-35.9-9-18.4-19-38-32.2-54.5-13.3-16.5-28.8-29.8-50.8-38.3-7.4-2.8-13.4-6.8-18.2-11-8.8-8-14.3-16.3-19.1-25.1-8.1-15.2-13.9-32.2-19-51.6-7.6-28.9-13.2-62.8-17.1-98.3s-6-72.6-6-107.3c0-9.6 0.1-19 0.5-28.2 2-54.7 4-131.8 5.5-198.4 0.7-33.3 1.3-63.9 1.8-87.8 0.4-23.9 0.7-41.3 0.6-47.1 0.1-11.2-0.8-22.3-2.8-29.9-1-3.9-2.2-6.8-3.2-8.6-1-1.9-1.8-2.6-2.2-3-3.6-3-5.9-4.6-7.1-5.3l-0.8-0.4-0.1-0.1 0.7-1.5-0.5 1.6-0.2-0.1 0.7-1.5-0.5 1.6s-0.8-0.2-3.1-0.6c-2.2-0.4-5.8-0.9-10.1-2-12.7-3.3-22.3-8.5-31.9-14.4-9.5-6-18.2-12.7-26.1-21l12.5-11.7-10.8 13.3-1.7-1.6 12.5-11.7-10.8 13.3s-1.3-0.9-3.2-2.2c-7.2-4.6-22.1-12.8-38.1-21.6-16.2-9-33.8-18.8-49.2-29.1-7-4.7-17-10.7-28.2-17.3-16.9-10.1-36.5-21.6-54.6-34.4-9-6.4-17.8-13.2-25.9-20.8-8-7.7-15.6-16-21.9-27.1-6.6-12.1-11.1-24.6-15.8-38.6-6.9-20.6-13.2-43.6-19-62.4-2.9-9.3-5.7-17.6-8-23.3-1.1-2.9-2.1-5.1-2.7-6.2l-0.3-0.6-0.1-0.1 11.5-7.1-10.3 8.7-1.2-1.6 11.5-7.1-10.3 8.7 1.5-1.2-1.4 1.3-0.1-0.1 1.5-1.2-1.4 1.3c-0.1-0.3-4.5-4.2-10.6-8.7-9.1-7-22.1-16.2-34.6-29-6.3-6.5-12.6-14.1-17.9-23.5s-9.5-20.9-10.5-33.7c-1-13.2-2.1-31.9-2.1-51.6 0.1-17.3 0.7-35.2 3.4-52 1.4-8.5 3.1-16.8 6.5-25.5 1.7-4.4 3.8-9 7-13.8 3.3-4.9 7.7-10.2 14.4-14.8v-0.1c12.1-8.1 23.4-10.7 32.7-12.2 14.1-2.2 25.7-2 34.5-2.7 4.3-0.3 7.9-0.7 10-1.2l2.2-0.6 0.2-0.1 1.4 3.1-1.7-2.9 0.3-0.2 1.4 3.1-1.7-2.9c0.9-0.5 2.2-1.5 4-3.5 2.7-2.9 6.3-8.2 10-14.9 3.9-6.7 7.8-14.7 13.8-23.7 4.2-6.3 8.4-11.5 12.8-17.4 6.6-8.5 13.4-18 18-26.8 4.7-8.8 6.6-16.3 6.5-20.5h10.8l-10.7 1.4-0.1-1.4h10.8l-10.7 1.4c-0.1-0.6-1.1-4.4-3.2-9.5-3.6-9-10.2-22.1-18.1-36.8-11.7-22-26.2-47.6-38.2-73.7-6-13-11.4-26.2-15.6-39.6-4.1-13.5-7.1-27.2-7.2-42.2 0.1-20.6-2.9-52.8-6.1-85.8-3.2-33.2-6.5-67.4-6.6-96.6 0.1-12.6 0.6-24.3 2.7-35.9 4.2-23.4 9.5-45.9 13.7-65.1 2.1-9.5 3.9-18.2 5.1-25.5s1.9-13.2 1.9-16.3v0.2l9.3 0.2h-9.3v-0.2l9.3 0.2h-9.3v-0.7c-0.1-1.6-0.5-5.8-1.2-11.1-2.7-18.8-9-51-14.6-81.4-2.8-15.3-5.5-30.2-7.5-43.5-1-6.6-1.9-12.8-2.5-18.6s-1.1-11.1-1.1-16.8c0-2.4 0.1-5 0.5-8.2l-0.1 0.2c0.8-6.7 2.3-12.5 4.2-18.4 3.2-10 7.8-20.1 13.4-30.5 8.5-15.6 19.5-32 32.9-47.6 13.4-15.5 29-30.3 47.6-42 19-11.8 36.5-25.6 52.5-38.8 16.2-13.2 30.1-25.5 45.9-35.4 3.8-2.3 9.2-5.5 16.8-9.9 26.3-15.1 76.4-43.1 125-69.7 24.4-13.2 48.3-26.1 68.7-36.7 10.2-5.3 19.5-10.1 27.6-14.2 8.2-4 15.1-7.3 21.1-9.9 21.1-9.1 50.7-22.5 79.9-37.7 29.1-15.1 58-32.4 76.2-47.4 23.4-19.1 41.8-31.6 54.3-41.1 6.3-4.8 11-8.8 14.7-12.3 3.7-3.7 6.4-6.9 9-10.9 7.7-11.9 11-18.5 16.7-30.1 5.6-11.5 13-27.3 26.4-52 12.3-22.4 19.9-40.9 32.1-60.2 6.1-9.5 13.6-19.1 23.1-27.7 9.6-8.6 20.9-15.9 33.6-21.7 13.3-5.9 33.2-19.7 54.1-35.5 21.1-15.8 43.5-33.4 67.1-47.4 19.1-11.2 40.7-25.7 62.3-38 10.9-6.2 21.8-12 33.2-16.6 11.5-4.4 23.5-8.3 38.5-8.4v11.6l-2.3-11.5c0.1 0 0.7-0.1 2.3-0.1v11.6l-2.3-11.5h0.1c1.5-0.3 8.3-3.1 16.1-8.5 12-7.9 27.3-21.1 41.5-37.6s27.5-36.2 37-57.4c8.6-19.1 16.8-34 23.6-46.2 5.2-9.2 9.4-16.7 12.8-23.6 5-10.3 8.4-19.1 11.2-32.5 2.7-13.3 4.5-31.5 4.5-58.3 0-4.9 0-10.2-0.2-15.8-0.1-3.8-0.1-7.7-0.1-11.5 0-120.9 43.7-191.6 46.4-195.9l33.9 21.4-1.6 40c-0.1 0-19-0.7-52.5-2-117.3-4.5-412.6-15.9-695.2-26.1-141.3-5.1-279.4-9.9-390.4-13.5-111-3.5-195.5-5.8-227.4-5.8h-1575.6c-7.8 0-26.1 0.5-51.15 1.3-88.06 2.9-262.99 10.2-431.34 16.7-84.2 3.3-166.78 6.4-236.21 8.7-69.49 2.3-125.53 3.7-157.8 3.7-8.73 0-15.67 0-21.58-0.3l-1.21-0.1 1.32 0.1c-40.06-2-95.48-3-140.57-3.5-22.56-0.3-42.58-0.4-56.95-0.4-14.37-0.1-23.01-0.1-23.03-0.1v-40.1l40.04-1 50.38 1918.7-4.82 9.2c-0.08 0.2-5.82 11.1-13.46 25.1-7.7 14-17.09 30.7-25.44 43.7-10.45 16.2-23.81 29.4-38.52 39.8-14.74 10.4-30.89 18.2-47.84 22.8-10.28 2.7-26.96 8.1-41.81 15.8-7.41 3.8-14.33 8.2-19.76 12.7-5.47 4.5-9.35 9-11.63 12.8-4.7 8-7.22 13-8.91 16.7-1.27 2.8-2.13 5-3.25 8-1.64 4.3-4.02 10.7-7.91 18.4-3.89 7.8-9.03 16.5-16.66 27.9-13.71 20.5-30.27 42-42.67 61.3-6.18 9.5-11.24 18.4-14.25 25.2-1.5 3.3-2.5 6.2-3 8.1l-0.45 2.1-0.05 0.4h-0.61 0.61-0.61 0.61c0.03 2.2 0.37 3.6 1.17 5.5 1.17 2.7 4.03 6.6 8.87 10.7 4.75 4 11.19 8 17.43 11.1 6.02 3 10.65 6.2 15.83 9.8 8.88 6.4 18.61 14.3 29.02 23.2 15.55 13.4 32.33 29.1 47.07 44 7.37 7.4 14.22 14.7 20.24 21.5 6.06 7 11.18 13.2 15.81 20.3 2.86 4.5 9.03 12.8 16.25 22.5 10.91 14.7 24.43 32.7 36.21 51.5 5.9 9.4 11.4 19.1 16 29.2 4.54 10.2 8.46 20.7 9.91 33.6 0.39 4 0.56 7.6 0.75 12.4 0.51 14.1 0.72 36.7 0.72 65 0 57.6-0.94 137.8-2.57 207-0.82 34.6-1.81 66.3-2.96 91.3-0.58 12.5-1.19 23.2-1.88 32-0.34 4.4-0.7 8.3-1.12 11.9-0.45 3.7-0.83 6.8-1.8 11-4.8 20.2-13.73 43.7-24.34 68.1-10.63 24.4-22.77 48.8-34.38 68.3-5.8 9.7-10.78 17-14.47 22.7-5.59 8.6-8.13 12.7-12 22.6-3.77 9.8-8.39 25.8-14.17 53.3-7.85 37.3-11.69 61.4-15.23 81-1.78 9.8-3.49 18.6-5.71 27.4s-5.01 17.6-8.65 26.3c-0.13 0.3-0.81 2.2-1.56 4.9-2.76 9.6-6.41 28.8-9 50.3-2.64 21.6-4.41 46.1-4.4 68.4-0.05 20 1.56 38.4 4.27 49.8 6.17 26.5 13.14 51.4 18.85 75.5 5.66 24.2 10.27 47.6 10.34 71.9 0 2.1-0.04 4-0.1 6-0.66 16.8-5.15 30.8-9.95 43.7-7.38 19.3-16.11 37-23.03 56.6s-12.26 40.8-13.13 66.7c-0.23 7.1-0.35 17.9-0.35 31 0 52.4 1.79 143.7 3.58 233.4 1.79 89.9 3.6 178.3 3.6 226.9 0 8.8-0.06 16.4-0.2 22.6-0.07 3.1-0.16 5.8-0.28 8.4-0.13 2.6-0.27 4.8-0.58 7.6-0.46 3.7-0.98 6-1.59 8.7-1.16 5.1-2.73 11-4.8 18.3-7.68 27.3-22.22 74-39.94 130.8-26.54 85.1-60.07 192.2-86.85 284.6-13.39 46.1-25.08 88.7-33.29 122.5-4.11 16.9-7.34 31.6-9.46 43.2-2.14 11.5-3.02 20.4-2.94 22.7v0.4h-2.54l2.54-0.1v0.1h-2.54l2.54-0.1v0.1c1.86 33.7 4 57.7 5.75 80.9 1.74 23.3 3.07 45.9 3.06 74.7 0 3.5-0.02 7-0.06 10.7-0.18 16.1-1.82 33.4-4.02 51.7-3.32 27.3-8.01 56.8-11.79 83.9-3.81 26.9-6.59 51.8-6.53 67.2-0.04 6.1 0.49 10.6 0.77 11.7 1.28 6.4 5.25 18.8 10.51 32.7 7.9 21 18.55 46.4 27.51 70.2 4.49 11.9 8.58 23.5 11.77 34.6 1.59 5.6 2.97 11 4.03 16.6 1.04 5.6 1.82 11.3 1.84 17.9l-0.01 1.2-0.01 0.2v0.1c-0.16 5.5-0.72 9.2-1.41 14.1-1.33 8.7-3.45 19.7-6.21 33.1-9.62 46.3-27.15 119.9-42.37 182.4-15.2 62.4-28.03 113.4-28.05 113.4l-38.84-9.7-1.13-40.1 1.13 40.1-38.85-9.8s1.18-4.7 3.26-13c7.27-29.1 25.49-102.4 41.92-171.7 8.21-34.6 15.98-68.2 21.66-94.5 2.84-13.2 5.16-24.6 6.71-33.1 0.78-4.2 1.37-7.7 1.72-10.2l0.34-2.7 0.04-0.5 10.3 0.7-10.32-0.2 0.02-0.5 10.3 0.7-10.32-0.2v0.3-0.2l4.24 0.1h-4.24v-0.1l4.24 0.1h-4.25c-0.04-0.8-0.53-4.1-1.66-8.4-1.93-7.6-5.6-18.6-10.13-30.7-6.8-18.2-15.49-39.2-23.34-59.3-3.93-10.1-7.66-20-10.89-29.5s-5.98-18.5-7.91-27.6c-1.99-9.6-2.45-18.7-2.49-28.2 0.02-15.7 1.56-32.7 3.69-50.7 3.22-27 7.89-56.4 11.73-83.7 3.87-27.2 6.8-52.6 6.94-69.2 0.03-3.4 0.05-6.7 0.05-9.9 0-26.5-1.16-46.2-2.84-68.7-1.69-22.4-3.92-47.5-5.85-82.5l0.01 0.2c-0.1-1.8-0.13-3.5-0.13-5 0.03-8.6 0.99-16.8 2.43-26.3 2.75-17.7 7.47-39.3 13.69-64.5 21.74-87.9 62.04-219.6 97.44-333.5 17.68-56.9 34.13-109.2 46.29-148.8 6.07-19.8 11.08-36.5 14.59-48.7 1.75-6.1 3.12-11.1 4.02-14.7 0.44-1.7 0.77-3.1 0.94-3.9l0.14-0.7 14.49 2.7-14.62-1.8 0.13-0.9 14.49 2.7-14.62-1.8 6.74 0.8-6.75-0.7 0.01-0.1 6.74 0.8-6.75-0.7c0.04-0.1 0.27-3.9 0.36-9 0.11-5.2 0.16-12.1 0.16-20.3 0.01-46.9-1.78-135.5-3.58-225.3-1.79-89.9-3.59-181-3.59-235 0-13.6 0.11-24.9 0.39-33.6 1.5-47.7 14.85-85.6 26.58-113.8 5.86-14.2 11.25-26 14.7-35.2 3.55-9.2 4.82-15.5 4.83-18.1l0.05-3.3c0.06-13.5-2.97-31.6-8.18-53.4-5.15-21.8-12.25-47.2-18.92-75.9-4.85-21.1-6.3-44-6.35-67.9 0.01-30.2 2.62-61.4 6.32-88.4 1.86-13.5 4-25.9 6.34-36.8 1.17-5.4 2.4-10.5 3.73-15.2 1.36-4.8 2.76-9.2 4.68-13.9 2.03-4.9 3.5-9.4 4.98-15.2 4.52-17.3 8-47.1 20.22-105.3 4.16-19.8 7.93-35 11.79-47.9 5.68-19.1 12.23-33.4 19.14-44.9 6.95-11.6 12.55-19 19.29-30.4 9.11-15.2 20.36-37.6 29.77-59.2 9.43-21.5 17.22-43.1 19.76-54.3l11.53 2.7-11.65-2.2 0.12-0.5 11.53 2.7-11.65-2.2c0.01 0 0.28-1.7 0.53-4.2 1.02-9.5 2.16-29.6 3.11-54.5 2.91-75.2 4.7-198.3 4.7-276.8 0-18.6-0.1-34.6-0.3-46.9-0.1-6.1-0.23-11.2-0.37-15.2-0.13-3.8-0.34-6.7-0.38-6.9l-0.02-0.2c-0.11-1.4-2.62-8.6-7.34-17-6.99-12.9-18.18-29-29.17-43.9-5.51-7.5-10.97-14.8-15.97-21.5-5.01-6.8-9.5-13-13.44-19.1-0.61-0.9-2.74-3.9-5.71-7.4-10.56-12.6-31.08-33.1-50.3-50.5-9.64-8.7-19.07-16.7-26.76-22.8-3.83-3-7.24-5.6-9.82-7.4l-3.08-2-0.81-0.5-0.13-0.1 1.54-2.9-1.46 2.9h-0.08l1.54-2.9-1.46 2.9c-13.72-6.9-29.95-16.6-44.54-32.2-7.25-7.8-14.05-17.3-19.1-28.6-5.05-11.2-8.16-24.4-8.12-38.1 0.15-16.9 4.88-30.5 10.42-43.2 8.52-19 20.05-36.4 31.64-53.2 11.57-16.6 23.32-32.4 31.81-45.1 5.74-8.6 9.02-14.2 11.03-18.1 1.51-2.9 2.34-4.7 3.26-7 1.33-3.2 3.01-8.2 6.14-15.4s7.45-15.8 14.01-26.8c8.24-14 18.77-25 29.74-34 16.53-13.5 34.25-22.8 50.39-29.8 16.14-6.9 30.78-11.4 41.09-14.2 7.11-1.9 15.28-5.6 22.46-10.8 7.22-5 13.39-11.4 17.48-17.8 6.19-9.6 15.34-25.7 22.54-38.8 3.63-6.7 6.83-12.6 9.11-16.9 1.15-2.1 2.06-3.9 2.68-5l0.93-1.8 35.5 18.6-40.05 1-51.18-1949.4h41.12c0.34 0 140.44 0 224.45 4l1.17 0.1h-1.07c3.22 0.1 9.44 0.2 17.47 0.2 34.41 0 102.58-1.9 185.59-4.7 124.65-4.3 283.51-10.7 417.95-16 67.23-2.7 128.35-5.1 176.11-6.8 23.89-0.9 44.43-1.6 60.77-2.1 16.41-0.5 28.39-0.8 36.08-0.8h1575.6c19.9 0 55.6 0.8 103.6 2.1 335.1 9.1 1264.9 45.4 1265 45.4l69.5 2.7-37.2 58.8-19.2-12.2 19.3 11.9-0.1 0.3-19.2-12.2 19.3 11.9-0.3 0.6c-3.5 6.1-33.8 60.8-33.8 152.7 0 3.2 0 6.4 0.1 9.7 0.2 6.1 0.2 12 0.2 17.6 0 26.9-1.5 48.5-4.8 67.3-4.7 28.2-14.1 50.1-24 68.3-9.8 18.4-19.5 33.8-30.4 57.9-19.5 43.2-47.9 78.6-76.2 104.5-14.3 12.9-28.4 23.5-42.5 31.5-7 4-14 7.3-21.5 9.9s-15.4 4.6-25.2 4.7v-3.5l0.2 3.5h-0.2v-3.5l0.2 3.5c0-0.1-4.5 0.7-10.7 3.4-9.4 4-22.7 11.5-37 20.3-14.4 8.8-30 18.9-45.8 28.2-17.1 10-38.1 26.2-59.8 42.5-21.9 16.3-44.1 32.9-68.9 44.3-6.3 2.9-10 5.5-13.1 8.3-4.6 4.1-8.8 9.8-14.8 20.8s-13.2 26.5-23.6 45.7c-12.6 23.4-18.9 36.7-24.8 48.9-5.9 12.1-11.9 23.9-21.6 38.7-6.1 9.4-13 17.5-20.2 24.6-10.9 10.6-22 18.7-33.9 27.4s-24.8 18-40.3 30.7c-25.9 21.1-58.2 39.9-90 56.5-31.8 16.5-63 30.6-85.2 40.2-4.1 1.7-11.4 5.2-20.4 9.7-31.6 15.8-84.4 44.5-131.4 70.4-23.5 13-45.5 25.4-62.9 35.2-8.7 4.9-16.2 9.2-22.1 12.6s-10.3 6-11.9 7c-6.9 4.1-20.7 15.5-37.3 29.2-16.7 13.8-37 30-60.8 44.9-14.5 8.8-31.2 26.5-42.9 44-5.9 8.7-10.7 17.3-13.9 24.2-1.6 3.4-2.7 6.4-3.4 8.5l-0.7 2.4-0.1 0.4-3-0.5 3.1 0.3-0.1 0.2-3-0.5 3.1 0.3v0.2h-0.1l-15-1.7 15.1 0.7-0.1 1-15-1.7 15.1 0.7-3.3-0.2 3.3 0.1v0.1l-3.3-0.2 3.3 0.1v0.1c0 1.1 0.3 5.2 0.9 10.5 2.2 18.9 8.6 52.6 14.4 83.6 2.9 15.5 5.7 30.6 7.8 43.6 1.1 6.5 2 12.6 2.7 18.1 0.6 5.6 1.1 10.4 1.1 16.2v1.9c-0.2 9.2-1.4 18.1-3 27.5-4.8 27.7-13.3 60.3-19 91.5-0.7 3.9-1.4 11.8-1.3 21.6-0.1 23 2.9 56 6.1 89 3.2 33.2 6.5 66.1 6.5 93.4 0 2.5 0.6 7.4 2.3 13.6 2.8 10.9 8.7 25.6 16.3 41.3 11.3 23.5 25.9 49.3 38.3 73 6.3 11.9 11.9 23.3 16.5 34.7 2.3 5.6 4.3 11.3 5.9 17.4s2.9 12.5 2.9 20.4c0 15.3-3.4 29-8 41-7 17.9-16.5 32.5-24.9 44.2-4.2 5.9-8.2 11-11.4 15.2s-5.7 7.5-6.5 8.7c-1.3 2-3.5 5.9-6.2 10.7-4 7.3-9.1 16.9-16.5 27.1-7.5 10.2-17.6 21.4-32.4 29.7-11.8 6.5-22.8 8.9-32.3 10.4-14.3 2-26.3 1.9-34.5 2.6-4.1 0.3-7.1 0.7-8.3 1l-0.5 0.2-0.3-1 0.3 0.9v0.1l-0.3-1 0.3 0.9-4.2-11.1 6.8 9.7-2.6 1.4-4.2-11.1 6.8 9.7-14.4-20.8 21.2 14.1c-1 1.4-2.9 3.9-6.8 6.7l-14.4-20.8 21.2 14.1-11.9-7.9 12.7 6.5-0.8 1.4-11.9-7.9 12.7 6.5-3.8-1.9 3.9 1.6-0.1 0.3-3.8-1.9 3.9 1.6c-0.1 0.2-0.7 2.2-1.4 5.2-1.9 9.2-3.1 26.5-3.1 43.5 0 16.9 1 34 1.9 45.2l-1.8 0.1 1.7-0.4 0.1 0.3-1.8 0.1 1.7-0.4 0.6 1.2c0.7 1.4 2.8 4.3 6.2 7.7 5.1 5.1 12.8 11.1 21.2 17.4 4.2 3.2 8.6 6.5 13 10.1 4.5 3.8 9 7.7 13.9 13.4 5.8 7 8.5 12.7 11.4 18.6 4.7 10.2 8.3 21 12.1 32.9 5.7 17.6 11.1 37.2 16.5 54.3 2.6 8.6 5.2 16.5 7.7 23 2.3 6.4 4.6 11.5 5.8 13.5 0.1 0.6 4.4 6.1 11.6 12 10.9 9.1 27.6 20 44.6 30.2 17.1 10.4 34.4 20.1 48.8 29.7 14.2 9.5 35.2 21.1 53.8 31.3 9.4 5.2 18.2 10.1 26 14.8 3.9 2.3 7.5 4.6 11.1 7 3.6 2.6 7 5 11.6 9.8 1.6 1.7 6.3 5.6 10.7 8.3 2.2 1.4 4.4 2.6 6.1 3.4l2 0.9 0.5 0.2-0.1 0.3 0.1-0.3-0.1 0.3 0.1-0.3c0.9 0.2 2.2 0.4 5.2 0.9 4.4 0.7 13.2 2.5 22 6.6 8.9 4.1 17.1 9.8 26 17.2 9 7.6 15.9 16.6 20.8 25.8 7.5 13.7 11.2 27.5 13.3 40.5s2.7 25.4 2.7 36.5c0 7.3-0.3 24.4-0.7 48.5-1.3 72.2-4.4 204.5-7.4 287.7-0.3 8.1-0.4 16.6-0.4 25.3-0.1 51.1 5.2 110.4 14 156.2 4.3 22.8 9.7 42.4 14.7 54.7 2.4 6.1 4.8 10.2 5.8 11.5l0.3 0.4-13.1 11.6 6-15.9c5.2 2 7 4.3 7.1 4.3l-13.1 11.6 6-15.9c28.7 10.8 51.8 27.5 69.7 45.8 26.8 27.4 42.6 57.9 54.1 80.9 5.6 11.5 10.3 21.2 13.6 26.9 1.6 2.8 2.8 4.6 3 4.8l-13.1 11.4 8.4-15c3.5 2 4.6 3.5 4.7 3.6l-13.1 11.4 8.4-15c3.2 1.8 5.9 3.6 9 5.6 10.9 7.5 25.9 19 43.6 33 26.5 21 58.3 47.1 85 69.6 13.4 11.3 25.5 21.6 35 30 4.8 4.1 9 7.9 12.4 11 3.6 3.3 6.2 5.6 9 8.7 0.3 0.3 1.8 1.7 3.8 3.6 7.7 7.3 23.6 21.8 42.9 39.2 29.1 26.3 66.5 59.7 98.9 89.1 16.2 14.7 31.2 28.5 43.4 39.8 6.1 5.7 11.5 10.8 16.1 15.3s8.3 8.1 11.6 11.6c4 4.3 9.1 10.2 15.7 17.8 22.9 26.6 61.9 73.5 98.6 117.2 18.4 21.8 36.1 42.9 50.8 60 7.4 8.6 14 16.2 19.4 22.4 5.5 6.1 9.9 11 12.3 13.5 15.4 15.9 52 54.5 88.5 93.5 18.2 19.4 36.4 39 51.8 55.8 15.5 16.9 28.1 30.9 35.9 40.1 0.3 0.4 2 2.2 4.4 4.5 4.5 4.3 11.6 10.6 20.4 18 30.9 25.9 82.1 64.7 130.9 99.9 24.5 17.6 48.5 34.4 69.2 48.2 20.6 13.9 38.2 25 48.5 30.7 13.9 7.6 33.6 17.5 55.7 28.1 33.1 16 71.5 33.7 105.2 49.3 16.8 7.8 32.5 15.1 45.8 21.5 13.5 6.4 24.4 11.8 32.6 16.2 7.1 3.8 22 10.8 39.7 18.5 53.6 23.4 135.4 55.6 165.6 67.7 25 10.1 48 24.8 68.2 38.8 10.1 7 19.3 13.8 27.3 19.8 7.9 5.9 14.7 11 19.1 14.2 3.1 2.2 9.4 6.1 16.8 10.2 11.2 6.3 25.3 13.4 38.7 20.1 13.5 6.7 26.2 12.8 35.8 17.8 24.4 12.6 41.6 22.7 54.8 32.7 6.7 5 12.4 9.9 17.9 16.7 2.7 3.4 5.4 7.4 7.8 12.6 2.3 5.2 4.3 11.9 4.3 19.7 0.1 7.5-2.1 15.7-5.7 22.2-3.2 5.7-7.3 10-11 13.2-6.7 5.5-12.6 7.9-17.7 9.7-7.6 2.5-13.9 3.4-20.3 4.1-6.3 0.6-12.4 0.8-18.7 0.8-12.2 0-24.5-0.8-35.6-1.7-11-0.9-20.8-1.9-26.5-2.4-12.1-1-23.3-3.5-34.7-6.4-17.1-4.3-34.7-9.6-51.3-13.6-16.6-4.1-32.2-6.7-43.5-6.6-3.2 0-5.9 0.1-8.3 0.5-15.2 2-29.9 8.3-47.6 19.6-17.6 11.2-37.2 27.3-60.3 45.3-20.7 16.1-43.3 25.4-64.5 30.4-21.2 4.9-41.1 5.9-58.2 5.9-15.6 0-29.1-0.8-38.2-0.8-23 0.1-41.7-4.7-55.8-8.2-14.3-3.7-23.8-5.8-32.4-5.8-17.6-0.1-32.1 1.7-51.4 1.8-9.6 0-20.1-0.6-31.5-2.2-11.7-1.7-37.3-4.5-63.4-6.7-26.2-2.3-53.9-4-69.2-4-1.8 0-3.5 0-4.8 0.1-10.2 0.2-22.3 3.1-32.6 6.8-5.1 1.9-9.8 4-13.6 5.8-3.7 1.8-6.6 3.5-7.6 4.2h-0.1l-14.8-23.3 20.3 18.8c-0.5 0.5-1.4 1.8-5.5 4.5l-14.8-23.3 20.3 18.8-6.6-6.2 6.8 6-0.2 0.2-6.6-6.2 6.8 6c-0.3 0.3-1.8 2.4-3.7 5.2-3.3 5-7.8 12.5-12.7 20.7-7.3 12.4-15.6 26.7-23.5 39.4-4 6.4-7.8 12.4-11.9 18-2 2.7-4.1 5.5-6.5 8.2-2.4 2.8-4.9 5.6-9 8.9-9.7 7.5-18 9.6-25.1 11.2-7.1 1.4-13.5 1.8-19.9 1.8-19.3-0.1-39.5-3.6-59.5-8.3-20-4.8-38.8-10.6-54.3-17.5-20.5-9.3-36.5-21.5-50-33.1-13.5-11.5-24.7-22.5-35.8-31.4-9.7-7.9-17.2-16.2-24.2-24.1-10.5-12-19.7-23.4-29.2-32.4-9.4-9-18.5-15.5-28.9-19.4-7.2-2.8-21.2-6.8-37.4-10.8-24.5-5.9-54.6-12-80.9-16.5-13.2-2.2-25.4-4.1-35.4-5.3-9.9-1.3-18-1.9-20.5-1.8h-0.5l-0.9-18.6 3.4 18.3c-1.8 0.3-2.4 0.3-2.5 0.3l-0.9-18.6 3.4 18.3-6.4-34.4 17.9 29.9c-6.7 3.8-9.7 4-11.5 4.5l-6.4-34.4 17.9 29.9h0.1c-2.4 1.4-4.5 2.5-6.9 3.8-8.1 4.3-19.4 10.1-30.2 16.3-5.4 3-10.5 6.2-14.6 8.9-4 2.8-7.1 5.3-7.8 6.1-1.7 1.7-3.9 4.4-7 8.5-4.5 6.2-10.8 15.6-20.1 26.5s-21.5 23.1-38 35.6c-42.4 32.5-79.5 46.6-98.6 52.5-1.9 0.6-9.5 3.3-18.5 7-13.8 5.5-32.3 13.4-49.2 21.7-8.4 4.1-16.5 8.4-23.2 12.3s-12.2 7.7-14.8 9.9c-2.7 2.2-5.2 5.1-8.1 9.8-4.3 6.9-8.8 17.9-15.3 31.5-3.3 6.7-7.2 14.1-12.5 21.7-5.2 7.6-11.9 15.4-20.4 22.3-11.4 9.2-23.6 13.8-35.1 16.6-11.6 2.8-22.9 3.6-34.1 3.7-18.7-0.1-36.9-2.7-53.4-6.3-8.2-1.9-15.9-4-23-6.3-7.2-2.4-13.6-4.8-19.9-8l0.1 0.1 10.8-21.8v24.7c-0.9-0.1-4.2 0.2-10.8-2.9l10.8-21.8v24.7-6.6l0.4 6.6h-0.4v-6.6l0.4 6.6h-0.5c-1.6 0.2-6 1.2-11.5 3-9.7 3.2-23 8.7-37.1 15.5-21.2 10.2-44.4 23.2-63.3 35.3-9.4 6.1-17.7 11.9-23.9 16.7-3.1 2.4-5.7 4.6-7.5 6.2l-2.1 2-0.5 0.6-0.1 0.1c-8.1 10.3-19.3 18.3-30.5 22.7-11.2 4.5-22.2 5.7-31.8 5.8-19.4-0.2-35.2-4.7-48.3-8-6.5-1.8-12.3-3.3-16.8-4.2-4.4-1-7.6-1.3-8.1-1.2v-8.9l1.6 8.8-1.6 0.1v-8.9l1.6 8.8-0.6-3.5 0.9 3.4-0.3 0.1-0.6-3.5 0.9 3.4-0.4 0.1c-1.2 0.5-4.6 2.4-8.3 5.6-5.6 4.6-11.9 11.9-15.9 18-2 2.9-3.5 5.7-4.2 7l-0.3 0.7-18.6-6.4 19.5 1.7c-0.3 3.3-0.8 4.4-0.9 4.7l-18.6-6.4 19.5 1.7c-0.9 11.1-4.2 21.2-8.5 30-7.5 15.4-17.8 27.6-29 38.3-16.9 16-36.2 28.7-54.7 38.6-9.2 4.9-18.3 9.1-27 12.4-8.9 3.3-17.1 5.8-26.5 7.1-3.4 0.5-7.1 1.5-11.8 3.3-7 2.6-16 7.3-27.8 12.5s-26.6 10.7-44.2 13.3c-16.5 2.4-49.5 7.7-82.9 12.8-33.6 5.2-67.4 10.2-88.1 12.4h0.1c-6.6 0.7-12.8 1-18.8 1-19.3 0.1-36.2-3.6-50.4-8.1-14.3-4.5-26.2-9.2-40-13.4-18.4-5.8-31.3-16.2-41.8-26.5-15.8-15.7-27.2-32.8-36.6-45.9-4.5-6.5-8.6-12-11.2-15.1-1.3-1.5-2.2-2.4-2.2-2.4l11.3-12.4-7.1 15c-3.3-1.6-4.2-2.6-4.2-2.6l11.3-12.4-7.1 15 5.4-11.6-4.5 12-1-0.4 5.5-11.6-4.5 12c-0.4-0.2-4.6-1.5-10.2-2.9-19.9-4.9-58.1-12.2-93.5-17.9-17.8-2.9-35-5.4-49.1-7.2-7-0.9-13.3-1.6-18.3-2-5-0.5-8.9-0.7-10.2-0.7l-1.1 0.1h-0.1l-1.4-7.9 5.2 5.9-3.8 2-1.4-7.9 5.2 5.9-3.4-3.8 4 3.2-0.6 0.6-3.4-3.8 4 3.2-0.3 0.5c-0.9 1.4-3 5.9-5 12.9-2.1 7.1-4.4 16.5-7 27.5-3.3 13.9-8.3 26.9-15.5 38.8-10.8 17.9-27.1 32.3-45.3 41.1-18.3 8.9-38 13.1-59 14.9-22.5 1.9-68.9 6.9-111.1 12-21.1 2.5-41.2 5.1-56.9 7.3-7.8 1.1-14.6 2.2-19.5 3-2.5 0.4-4.5 0.8-5.9 1l-1.4 0.3-0.1 0.1-3.3-12.6 3.7 12.5-0.4 0.1-3.3-12.6 3.7 12.5-4-13.8 5.8 13.1-1.8 0.7-4-13.8 5.8 13.1-1.9-4.3 2.2 4.2-0.3 0.1-1.9-4.3 2.2 4.2-1.9 1.2c-4.2 2.8-12.4 10.2-21.2 18.3-9.14 8.2-18.76 17.3-31.83 25.3l0.08-0.1c-6.93 4.2-13.52 6.2-19.26 7.3-5.79 1.1-10.92 1.4-15.78 1.4-10.02-0.1-19.12-1.3-28.52-2.7-13.99-2.3-28.49-5.2-43.12-7.6-14.58-2.3-29.17-4-42.3-4-5.96 0-11.6 0.3-16.79 1l-5.27-39.7 36.69 16.1c-3.44 7.8-8.32 13.9-12.98 18.3-8.29 7.8-15.91 11.7-22.72 15.1-10.23 4.8-19.37 8-26.78 11.3-7.4 3.1-12.67 6.2-14.29 7.7-3.51 3-9.75 9-16.35 15.9-10 10.3-21.27 22.7-29.91 32.4-4.33 4.9-8.02 9-10.6 12-1.3 1.5-2.32 2.6-3.01 3.5l-1.02 1.1-30.33-26.1 40.05-0.9c0 0.1 1.34 59.9 1.34 106.9 0 11.8-0.08 22.8-0.3 32-0.11 4.7-0.26 8.9-0.46 12.7-0.22 3.9-0.43 7.2-0.94 11-1.84 13.8-5.57 29.4-12.52 46.7-6.94 17.3-16.9 36.4-31.33 59.4l-33.92-21.3 39.53-6.4c1.75 10.8 2.31 21.9 2.32 33.8-0.06 36.8-5.78 81.8-12.78 123.4-3.52 20.8-7.39 40.5-11.16 57.6-3.79 17.2-7.36 31.4-10.81 42.3-5.65 17.9-8.24 32.4-10.63 46.4-1.19 7.1-2.31 14.1-3.91 21.4-1.6 7.4-3.68 15.2-7.22 23.4l-6.89 16-16.41 5.9c-0.14 0.1-29.52 10.6-61.18 21.2-15.85 5.3-32.23 10.6-46.17 14.8-7 2.1-13.35 3.9-19.12 5.3-2.91 0.7-5.66 1.3-8.59 1.8-3.03 0.5-5.83 1-11.08 1.1l-0.04-40.1 5.76 39.7c-2.75 0.4-4.81 0.4-5.84 0.4h-0.81l0.74-38v38h-0.74l0.74-38v38c-31.08 0-60.04-11.9-81.39-32-21.38-20-35.29-48.9-35.83-80.8l-5.37-279.1-1474.8 41.5 12.91-51.3 38.85 9.8" clip-path="url(#clipPath44)" fill="url(#linearGradient8)"/>
  <path transform="matrix(1.3333 0 0 -1.3333 -502.84 2206.6)" d="m858.5 1143.9c2e-3 31.78 12.868 60.51 33.69 81.33 20.827 20.82 49.557 33.69 81.333 33.69 31.777 0 60.507-12.87 81.337-33.69 20.82-20.82 33.68-49.55 33.69-81.33-0.01-31.78-12.87-60.5-33.69-81.33-20.83-20.82-49.56-33.69-81.337-33.69v-8.01c67.947 0 123.03 55.08 123.04 123.03-0.01 67.95-55.09 123.03-123.04 123.03-67.951 0-123.03-55.08-123.03-123.03h8.011" clip-path="url(#clipPath43)" fill="url(#linearGradient9)"/>
  <path transform="matrix(1.3333 0 0 -1.3333 -502.84 2206.6)" d="m1047.8 1143.9c0-20.52-8.3-39.06-21.75-52.51-13.45-13.44-31.988-21.75-52.507-21.75s-39.058 8.31-52.51 21.75c-13.444 13.45-21.748 31.99-21.75 52.51 2e-3 20.52 8.306 39.06 21.75 52.51 13.452 13.45 31.991 21.75 52.51 21.75v8.01c-45.438 0-82.268-36.83-82.271-82.27 3e-3 -45.44 36.833-82.27 82.271-82.27 45.437 0 82.267 36.83 82.267 82.27h-8.01" clip-path="url(#clipPath42)" fill="url(#linearGradient9)"/>
  <path transform="matrix(1.3333 0 0 -1.3333 -502.84 2206.6)" d="m989.78 1024.9c0-8.98-7.28-16.26-16.26-16.26s-16.259 7.28-16.259 16.26 7.279 16.26 16.259 16.26 16.26-7.28 16.26-16.26" clip-path="url(#clipPath41)" fill="url(#linearGradient11)"/>
  <path transform="matrix(1.3333 0 0 -1.3333 -502.84 2206.6)" d="m870.75 1142.5c0-8.99-7.279-16.26-16.259-16.26-8.979 0-16.258 7.27-16.258 16.26 0 8.97 7.279 16.25 16.258 16.25 8.98 0 16.259-7.28 16.259-16.25" clip-path="url(#clipPath40)" fill="url(#linearGradient12)"/>
  <path transform="matrix(1.3333 0 0 -1.3333 -502.84 2206.6)" d="m991.35 1222.2c0-8.97-7.28-16.25-16.259-16.25-8.98 0-16.26 7.28-16.26 16.25 0 8.99 7.28 16.26 16.26 16.26 8.979 0 16.259-7.27 16.259-16.26" clip-path="url(#clipPath39)" fill="url(#linearGradient13)"/>
  <path transform="matrix(1.3333 0 0 -1.3333 -502.84 2206.6)" d="m1066.4 1143.9c0-8.98-7.28-16.26-16.26-16.26s-16.26 7.28-16.26 16.26 7.28 16.26 16.26 16.26 16.26-7.28 16.26-16.26" clip-path="url(#clipPath38)" fill="url(#linearGradient14)"/>
  <path transform="translate(-502.84 -522.37)" d="m1330.2 1189.8c0 16.613-13.465 30.08-30.075 30.08-16.611 0-30.075-13.467-30.075-30.08 0-16.6 13.464-30.067 30.075-30.067 16.609 0 30.075 13.467 30.075 30.067" clip-path="url(#clipPath37)" fill="#fff"/>
  <path transform="translate(-502.84 -522.37)" d="m1329 1259.2h-57.747l23.553-66.96h10.64l23.553 66.96" clip-path="url(#clipPath36)" fill="#fff"/>
 </g>
</svg>
